<svg data-name="Layer 1" xmlns="http://www.w3.org/2000/svg" viewBox="0 0 502.3 67.8"><title>type</title><g data-name="layer2"><path data-name="path614" d="M0 26.3a28 28 0 0 0 1.3 8.8 28.84 28.84 0 0 0 3.6 7.5 20.61 20.61 0 0 0 5.6 5.8 23.06 23.06 0 0 0 7.3 3.8 31.59 31.59 0 0 0 15.1.7 28.79 28.79 0 0 0 5.2-1.7c1.5-.6 2.9-1.5 4.2-2.1a32.19 32.19 0 0 0 2.9-2.1 18.14 18.14 0 0 0 1.9-1.7c.2-.4.4-.6.4-.8l-5-6.9-.6.6a11.3 11.3 0 0 1-2.1 1.7c-.8.6-1.9 1.3-3.1 2.1a14.65 14.65 0 0 1-4.4 1.9 24.16 24.16 0 0 1-5.4.6 17 17 0 0 1-6.7-1.3 16.85 16.85 0 0 1-5.2-4 20.23 20.23 0 0 1-3.6-5.8 17.4 17.4 0 0 1-1.5-7.1 18.64 18.64 0 0 1 1.3-7.3 14.64 14.64 0 0 1 3.6-5.4 16.44 16.44 0 0 1 5.2-3.5 17.85 17.85 0 0 1 6.5-1.2 15.15 15.15 0 0 1 2.9.2l2.9.6a9.34 9.34 0 0 1 2.5 1 9.68 9.68 0 0 1 1.9 1.5 3.7 3.7 0 0 1 .6 2.1v3h8.8v-5.8a9.1 9.1 0 0 0-1-4 9.18 9.18 0 0 0-2.7-2.9 10.71 10.71 0 0 0-3.8-2.1c-1.5-.6-2.7-1-4.2-1.5A33.92 33.92 0 0 0 30 .2a26.87 26.87 0 0 0-3.8-.2 28 28 0 0 0-8.6 1.3 23.15 23.15 0 0 0-7.3 3.8 33 33 0 0 0-5.6 5.6A22.65 22.65 0 0 0 1.1 18 29.8 29.8 0 0 0 0 26.3" fill="#fff"/><path data-name="path618" d="M52.7 47.5a5 5 0 0 0 1.3 3.8c.6.8 1.9 1.3 3.8 1.3h8.8v-7.7h-2.9a3.82 3.82 0 0 1-1.3-.4 2.23 2.23 0 0 1-.4-1.3V5.8A5 5 0 0 0 60.7 2 5.27 5.27 0 0 0 56.9.7h-8.8v7.9H51a3.82 3.82 0 0 1 1.3.4 1.8 1.8 0 0 1 .4 1.3v37.2z" fill="#fff"/><path data-name="path622" d="M77 34a12.75 12.75 0 0 1 .8-4.8 17.43 17.43 0 0 1 2.3-3.8 8 8 0 0 1 3.6-2.3 9.84 9.84 0 0 1 4.2-.8 11.4 11.4 0 0 1 4.4.8 13.76 13.76 0 0 1 3.6 2.3 8.66 8.66 0 0 1 2.3 3.8A12.1 12.1 0 0 1 99 34a12.75 12.75 0 0 1-.8 4.8 17.43 17.43 0 0 1-2.3 3.8 9.67 9.67 0 0 1-3.5 2.3 10.17 10.17 0 0 1-4.4.8 9.84 9.84 0 0 1-4.2-.8 13.76 13.76 0 0 1-3.6-2.3 8.66 8.66 0 0 1-2.3-3.8A10.83 10.83 0 0 1 77 34m-9.4 0a19 19 0 0 0 1.7 7.9 17.65 17.65 0 0 0 4.4 6.1 19.68 19.68 0 0 0 6.5 4 20.58 20.58 0 0 0 7.9 1.5A18.27 18.27 0 0 0 96 52a18.17 18.17 0 0 0 6.5-4 17.87 17.87 0 0 0 4.4-6.3 19.7 19.7 0 0 0 1.7-7.7 18.32 18.32 0 0 0-1.7-7.9 20.53 20.53 0 0 0-4.4-6.3 19.68 19.68 0 0 0-6.5-4 26.33 26.33 0 0 0-7.9-1.5 18.87 18.87 0 0 0-7.9 1.5 21.49 21.49 0 0 0-6.5 4 17.87 17.87 0 0 0-4.4 6.3 18.32 18.32 0 0 0-1.7 7.9" fill="#fff"/><path data-name="path626" d="M113.8 39.3a17.1 17.1 0 0 0 1.7 8.1 9.84 9.84 0 0 0 4.4 4.6 16.55 16.55 0 0 0 11.3.9 16.31 16.31 0 0 0 3.8-1.7 17.38 17.38 0 0 0 2.9-2.5c.6-1 1.3-2.1 1.7-2.9h.2v2.7a3.87 3.87 0 0 0 1.3 3.1 6.05 6.05 0 0 0 3.5 1h8.6v-7.7h-2.9c-.4-.2-.8-.4-1.3-.6a1.8 1.8 0 0 1-.4-1.3V15.3h-9.2v17.1a18.57 18.57 0 0 1-.6 4.8 8.59 8.59 0 0 1-2.1 4 6.75 6.75 0 0 1-3.3 2.7 10.18 10.18 0 0 1-4.4 1 5.83 5.83 0 0 1-3.5-1 4.36 4.36 0 0 1-1.7-2.5 12 12 0 0 1-.4-4V20.3a5 5 0 0 0-1.3-3.8 5 5 0 0 0-3.8-1.3h-8.8v8.1h2.9a3.82 3.82 0 0 1 1.3.4 1.8 1.8 0 0 1 .4 1.3v14.3z" fill="#fff"/><path data-name="path630" d="M172.7 45.5a7.08 7.08 0 0 1-4.8-1.5 7.7 7.7 0 0 1-3.1-4 14.7 14.7 0 0 1-1.3-6.3 12.81 12.81 0 0 1 .8-5 8 8 0 0 1 2.1-3.5 10.51 10.51 0 0 1 2.9-2.3 10 10 0 0 1 3.5-.8 8.46 8.46 0 0 1 4 1 7.88 7.88 0 0 1 2.9 2.5 10.23 10.23 0 0 1 1.7 3.8 15.23 15.23 0 0 1 .6 4.2 13.23 13.23 0 0 1-.8 5.2 8 8 0 0 1-2.1 3.5 7.19 7.19 0 0 1-2.9 2.1 4.91 4.91 0 0 1-3.5 1.1m-18.6-11.4a21.83 21.83 0 0 0 1.3 7.9 19.85 19.85 0 0 0 3.3 6.1 14.54 14.54 0 0 0 5.2 4 19.33 19.33 0 0 0 6.9 1.5 14.63 14.63 0 0 0 4.4-.6 11.09 11.09 0 0 0 3.3-1.5 23.28 23.28 0 0 0 2.3-1.9 8.09 8.09 0 0 0 1.3-1.5 2.48 2.48 0 0 1 .4-.6h.2v1.3a5.33 5.33 0 0 0 .4 1.9 2.46 2.46 0 0 0 1.5 1.3c.4.6 1.3.8 2.5.8h8.6v-7.7h-2.9a3.82 3.82 0 0 1-1.3-.4 2.84 2.84 0 0 1-.4-1.3V5.9a5 5 0 0 0-1.3-3.8A5.27 5.27 0 0 0 186 .8h-8.8v7.7h2.9a3.82 3.82 0 0 1 1.3.4 1.8 1.8 0 0 1 .4 1.3v8.6h-.2l-.4-.4-1-1a16 16 0 0 0-2.1-1.3 11.29 11.29 0 0 0-3.1-1 27.22 27.22 0 0 0-4.2-.4 14.54 14.54 0 0 0-6.9 1.5 14.93 14.93 0 0 0-5.4 4 18.37 18.37 0 0 0-3.5 6.1 37.19 37.19 0 0 0-.9 7.8" fill="#fff"/><path data-name="path634" d="M213.5 31.7l5.6-15.7c.2-.6.4-1.5.6-2.3s.4-1.7.6-2.3a10.8 10.8 0 0 0 .4-1.9 2 2 0 0 0 .2-.8h.2a3.15 3.15 0 0 0 .2.8 11.78 11.78 0 0 1 .4 1.9c.2.8.4 1.5.6 2.3s.4 1.7.6 2.3l5.6 15.7zm-15.6 20.8h4a10.62 10.62 0 0 0 2.9-.4 3.46 3.46 0 0 0 1.9-1.3 27.33 27.33 0 0 0 1.3-2.5l4-10.6h19l4 10.6a3.55 3.55 0 0 0 1 2.5 3.71 3.71 0 0 0 1.7 1.3 10 10 0 0 0 2.9.4h4.2v-6.2h-1a3.64 3.64 0 0 1-1.5-.2c-.4-.2-.6-.6-.8-1.3L225.4 1.2h-7.7l-16.1 43.6a2.42 2.42 0 0 1-.8 1.3 1.81 1.81 0 0 1-1.5.2h-1v6.3h-.4z" fill="#fff"/><path data-name="path638" d="M245.9 34.2a18 18 0 0 0 1.5 7.7 19.57 19.57 0 0 0 4 6.1 17 17 0 0 0 6.3 4 20.58 20.58 0 0 0 7.9 1.5 20.09 20.09 0 0 0 5.2-.6 16 16 0 0 0 4.2-1.7 16.79 16.79 0 0 0 3.1-1.9 18.14 18.14 0 0 0 1.9-1.7l.6-.6-3.1-5a2.47 2.47 0 0 0-.4.6 3.34 3.34 0 0 1-1.5 1.3c-.6.4-1.5 1-2.3 1.5s-2.1.8-3.1 1.3a25 25 0 0 1-3.8.6 14.53 14.53 0 0 1-5-.8 17.94 17.94 0 0 1-4.2-2.5 10.86 10.86 0 0 1-2.9-4.2 16.88 16.88 0 0 1-1-5.6 15.71 15.71 0 0 1 1-5.4 11.66 11.66 0 0 1 2.7-4.2 9.19 9.19 0 0 1 4-2.7 13.1 13.1 0 0 1 5-1 9.75 9.75 0 0 1 2.3.2l2.3.6a10.63 10.63 0 0 0 1.5 1.5 2.35 2.35 0 0 1 .6 1.7V27h6.5v-3.8a6.11 6.11 0 0 0-1-3.3 5.63 5.63 0 0 0-2.3-2.3 25.21 25.21 0 0 0-3.3-1.5 24.89 24.89 0 0 0-3.5-.8 17.78 17.78 0 0 0-3.1-.2 19.8 19.8 0 0 0-8.1 1.5 16.24 16.24 0 0 0-6.3 4.2 18 18 0 0 0-4 6.1 14.6 14.6 0 0 0-1.7 7.3" fill="#fff"/><path data-name="path642" d="M290 41.8a5.62 5.62 0 0 1 1-3.3 7.05 7.05 0 0 1 2.7-2.1 16 16 0 0 1 3.8-1 27.11 27.11 0 0 1 4-.4h5.4v1a15.23 15.23 0 0 1-.6 4.2 8 8 0 0 1-2.1 3.8 10.09 10.09 0 0 1-3.1 2.7 9.1 9.1 0 0 1-4 1 8.42 8.42 0 0 1-4-.8 5.93 5.93 0 0 1-2.3-2.1 5.64 5.64 0 0 1-.8-3m-7.1.4a11.37 11.37 0 0 0 1 4.8 10.05 10.05 0 0 0 2.9 3.6 11 11 0 0 0 4 2.1 18.16 18.16 0 0 0 4.6.6 11.12 11.12 0 0 0 4.6-.8 7.2 7.2 0 0 0 3.3-1.9 24 24 0 0 0 2.3-2.1 7.16 7.16 0 0 0 1.3-1.9l.4-.8h.2v2.1a5 5 0 0 0 1 3.1c.6.8 1.9 1 3.5 1h6.7v-6.1h-2.9a3.82 3.82 0 0 1-1.3-.4 1.8 1.8 0 0 1-.4-1.3V28.6a23.44 23.44 0 0 0-.6-5.6 10.39 10.39 0 0 0-2.5-4.6 11.31 11.31 0 0 0-4.6-3.1 25.17 25.17 0 0 0-7.5-1 14.22 14.22 0 0 0-2.7.2 23.26 23.26 0 0 0-3.3.6 7.4 7.4 0 0 0-3.3 1.3 6.41 6.41 0 0 0-2.5 2.1 5.22 5.22 0 0 0-1 3.1v3.7h6.7v-2.1a2.2 2.2 0 0 1 .6-1.5 3.85 3.85 0 0 1 1.7-.8 6.54 6.54 0 0 1 2.1-.4c.6 0 1.3-.2 1.7-.2a10 10 0 0 1 4.6.8 5.89 5.89 0 0 1 2.7 2.7 12.92 12.92 0 0 1 .8 5.2v.6h-1.7a27.58 27.58 0 0 0-3.8.2 42.31 42.31 0 0 0-4.8.4 22.73 22.73 0 0 0-5 1.2 15.31 15.31 0 0 0-4.4 2.3 9.15 9.15 0 0 0-3.1 3.6 8.54 8.54 0 0 0-1.3 4.9" fill="#fff"/><path data-name="path646" d="M338.2 47.4a8.7 8.7 0 0 1-5.4-1.7 10.19 10.19 0 0 1-3.8-4.6 18.44 18.44 0 0 1-1.3-6.9 16.13 16.13 0 0 1 .8-5.6 14.17 14.17 0 0 1 2.3-4.2 13.08 13.08 0 0 1 3.3-2.5 9.84 9.84 0 0 1 4.2-.8 10.43 10.43 0 0 1 4.6 1 8.39 8.39 0 0 1 3.3 2.9 15.93 15.93 0 0 1 1.9 4.2 18.57 18.57 0 0 1 .6 4.8 18.8 18.8 0 0 1-.8 6.1 16.5 16.5 0 0 1-2.3 4.2 9 9 0 0 1-3.3 2.3 15.63 15.63 0 0 1-4.1.8m-17.7-13.3a32.84 32.84 0 0 0 1 7.9 19.85 19.85 0 0 0 3.3 6.1 14.54 14.54 0 0 0 5.2 4 18.25 18.25 0 0 0 6.7 1.5 17.5 17.5 0 0 0 4.8-.6 9.32 9.32 0 0 0 3.3-1.7 7.81 7.81 0 0 0 2.3-2.1 12.9 12.9 0 0 0 1.3-1.7 2.48 2.48 0 0 1 .4-.6h.2V49a4 4 0 0 0 1 2.9 5.21 5.21 0 0 0 3.5 1h6.9v-6.1h-2.9a3.82 3.82 0 0 1-1.3-.4 1.8 1.8 0 0 1-.4-1.3V5.9a5 5 0 0 0-1-3.5c-.8-.8-1.9-1-3.5-1h-7.1v5.9h2.9a3.82 3.82 0 0 1 1.3.4 1.8 1.8 0 0 1 .4 1.3v11.5h-.2a2.47 2.47 0 0 1-.4-.6 7 7 0 0 0-1.3-1.5c-.6-.6-1.3-1-2.1-1.7a12.83 12.83 0 0 0-3.3-1.5 14.63 14.63 0 0 0-4.4-.6 13.75 13.75 0 0 0-6.7 1.5 12.8 12.8 0 0 0-5.2 4 18.37 18.37 0 0 0-3.5 6.1 23.44 23.44 0 0 0-1.2 7.9" fill="#fff"/><path data-name="path650" d="M370.1 29.8a11.65 11.65 0 0 1 2.1-5.2 8.09 8.09 0 0 1 3.8-3.1 13.1 13.1 0 0 1 5-1 10 10 0 0 1 4.2 1 7.69 7.69 0 0 1 3.1 3.1 10.53 10.53 0 0 1 1.3 5.2zm-7.7 4.2a18.56 18.56 0 0 0 1.5 7.7 16.6 16.6 0 0 0 4 6.1 20.42 20.42 0 0 0 6.3 4.2 19.87 19.87 0 0 0 7.9 1.5 18.56 18.56 0 0 0 4.8-.6 37.58 37.58 0 0 0 4-1.3 11.09 11.09 0 0 0 2.9-1.7c.8-.6 1.5-1 1.9-1.3l.6-.6-3.1-5-.4.4c-.4.2-.8.6-1.5 1s-1.5.8-2.3 1.3a12.37 12.37 0 0 1-2.9 1 9.89 9.89 0 0 1-3.5.6 11.73 11.73 0 0 1-4.6-.8 16 16 0 0 1-4-2.3 8.16 8.16 0 0 1-2.7-4A24.7 24.7 0 0 1 370 35h26.9v-3.2a23.54 23.54 0 0 0-1-6.7 14.7 14.7 0 0 0-2.9-5.4 13.84 13.84 0 0 0-5-3.8 22 22 0 0 0-6.9-1.5 16.2 16.2 0 0 0-7.3 1.5 14.75 14.75 0 0 0-5.8 4 23.87 23.87 0 0 0-4 6.1 21.54 21.54 0 0 0-1.6 8" fill="#fff"/><path data-name="path654" d="M404.4 52.6h7.1V35.7a10.55 10.55 0 0 1 .2-2.5 9.26 9.26 0 0 1 .4-2.3 20 20 0 0 1 1.5-3.8 10.89 10.89 0 0 1 2.3-3.1 8.51 8.51 0 0 1 3.1-2.1 7.38 7.38 0 0 1 3.8-.8 5.21 5.21 0 0 1 3.3.8A4.84 4.84 0 0 1 428 24a12.29 12.29 0 0 1 .8 2.9 19.41 19.41 0 0 1 .2 3.5v22.1h7.1V35.7a11.42 11.42 0 0 1 .2-2.7 7.88 7.88 0 0 1 .4-2.3 12.33 12.33 0 0 1 1.5-3.5 16.3 16.3 0 0 1 2.3-2.9 9.76 9.76 0 0 1 2.9-2.1 10 10 0 0 1 3.5-.8 7.19 7.19 0 0 1 3.3.6 3.9 3.9 0 0 1 1.9 1.9 12.29 12.29 0 0 1 .8 2.9 19.41 19.41 0 0 1 .2 3.5v17.5a5.53 5.53 0 0 0 1 3.6c.8.8 1.9 1 3.5 1h7.1v-6.1h-2.9a2.84 2.84 0 0 1-1.2-.4c-.2 0-.4-.4-.4-1V28.8c0-4.8-1-8.1-2.9-10.6-2.1-2.3-5-3.5-9.2-3.5a16.66 16.66 0 0 0-4.4.6 13.52 13.52 0 0 0-3.8 1.9 16.26 16.26 0 0 0-3.1 2.7 28.24 28.24 0 0 0-2.1 3.1h-.2a10.72 10.72 0 0 0-3.8-6.3c-1.9-1.5-4.4-2.1-7.5-2.1a14.21 14.21 0 0 0-4.2.6 13.52 13.52 0 0 0-3.8 1.9 18.57 18.57 0 0 0-2.9 2.7 13 13 0 0 0-1.9 3.1h-.2v-3.5a5 5 0 0 0-1-3.1 5.61 5.61 0 0 0-3.5-1h-6.6v6h2.9a3.82 3.82 0 0 1 1.3.4 1.8 1.8 0 0 1 .4 1.3v29.6z" fill="#fff"/><path data-name="path658" d="M466.8 59.1l-2.9 5 .6.6a8.31 8.31 0 0 0 1.7 1.2c.8.4 1.7.8 2.7 1.3a10.44 10.44 0 0 0 3.8.6 12.87 12.87 0 0 0 4.8-1 11.43 11.43 0 0 0 4-2.9 14.32 14.32 0 0 0 2.9-4.8L499 23a4.89 4.89 0 0 1 .8-1.3 3.2 3.2 0 0 1 1.5-.2h1v-6.1h-4.2a4.71 4.71 0 0 0-2.5.4 4.78 4.78 0 0 0-1.7 1 20.94 20.94 0 0 0-1.3 2.3L484.9 40q-.3.9-.6 2.1a6.78 6.78 0 0 0-.4 1.7c0 .4-.2.6-.2.8h-.2a3.15 3.15 0 0 0-.2-.8 7.92 7.92 0 0 0-.4-1.7q-.3-.9-.6-2.1L474 19.1a8.19 8.19 0 0 0-1.3-2.3 2.7 2.7 0 0 0-1.7-1 8.15 8.15 0 0 0-2.5-.4h-4.2v6.1h.8a3.64 3.64 0 0 1 1.5.2c.4.2.6.6.8 1.3l12.5 29.2-1.7 4a11.74 11.74 0 0 1-2.7 4 6.17 6.17 0 0 1-3.8 1.5 6.54 6.54 0 0 1-2.1-.4 13.76 13.76 0 0 1-1.7-.8c-.4-.4-.8-.6-1-.8a.63.63 0 0 0-.1-.6" fill="#fff"/></g></svg>