<svg id="Layer_1" data-name="Layer 1" xmlns="http://www.w3.org/2000/svg" viewBox="0 0 502.3 67.8"><defs><style>.cls-1{fill:#1874bd;}</style></defs><title>logo-text-color</title><path class="cls-1" d="M0,26.3a28,28,0,0,0,1.3,8.8,28.8,28.8,0,0,0,3.6,7.5,20.6,20.6,0,0,0,5.6,5.8,23.1,23.1,0,0,0,7.3,3.8,31.6,31.6,0,0,0,15.1.7,28.8,28.8,0,0,0,5.2-1.7c1.5-.6,2.9-1.5,4.2-2.1L45.2,47l1.9-1.7c.2-.4.4-.6.4-.8l-5-6.9-.6.6a11.3,11.3,0,0,1-2.1,1.7L36.7,42a14.6,14.6,0,0,1-4.4,1.9,24.2,24.2,0,0,1-5.4.6,17,17,0,0,1-6.7-1.3,16.8,16.8,0,0,1-5.2-4,20.2,20.2,0,0,1-3.6-5.8,17.4,17.4,0,0,1-1.5-7.1A18.6,18.6,0,0,1,11.2,19a14.6,14.6,0,0,1,3.6-5.4A16.4,16.4,0,0,1,20,10.1a17.9,17.9,0,0,1,6.5-1.2l2.9.2,2.9.6a9.3,9.3,0,0,1,2.5,1,9.7,9.7,0,0,1,1.9,1.5,3.7,3.7,0,0,1,.6,2.1v3h8.8V11.5a9.1,9.1,0,0,0-1-4,9.2,9.2,0,0,0-2.7-2.9,10.7,10.7,0,0,0-3.8-2.1L34.4,1,30,.2,26.2,0a28,28,0,0,0-8.6,1.3,23.2,23.2,0,0,0-7.3,3.8,33,33,0,0,0-5.6,5.6A22.6,22.6,0,0,0,1.1,18,29.8,29.8,0,0,0,0,26.3" transform="translate(0 0)"/><path class="cls-1" d="M52.7,47.5A5,5,0,0,0,54,51.3c.6.8,1.9,1.3,3.8,1.3h8.8V44.9H63.7l-1.3-.4a2.2,2.2,0,0,1-.4-1.3V5.8A5,5,0,0,0,60.7,2,5.3,5.3,0,0,0,56.9.7H48.1V8.6H51l1.3.4a1.8,1.8,0,0,1,.4,1.3Z" transform="translate(0 0)"/><path class="cls-1" d="M77,34a12.7,12.7,0,0,1,.8-4.8,17.4,17.4,0,0,1,2.3-3.8,8,8,0,0,1,3.6-2.3,9.8,9.8,0,0,1,4.2-.8,11.4,11.4,0,0,1,4.4.8,13.8,13.8,0,0,1,3.6,2.3,8.7,8.7,0,0,1,2.3,3.8A12.1,12.1,0,0,1,99,34a12.7,12.7,0,0,1-.8,4.8,17.4,17.4,0,0,1-2.3,3.8,9.7,9.7,0,0,1-3.5,2.3,10.2,10.2,0,0,1-4.4.8,9.8,9.8,0,0,1-4.2-.8,13.8,13.8,0,0,1-3.6-2.3,8.7,8.7,0,0,1-2.3-3.8A10.8,10.8,0,0,1,77,34m-9.4,0a19,19,0,0,0,1.7,7.9A17.6,17.6,0,0,0,73.7,48a19.7,19.7,0,0,0,6.5,4,20.6,20.6,0,0,0,7.9,1.5A18.3,18.3,0,0,0,96,52a18.2,18.2,0,0,0,6.5-4,17.9,17.9,0,0,0,4.4-6.3,19.7,19.7,0,0,0,1.7-7.7,18.3,18.3,0,0,0-1.7-7.9,20.5,20.5,0,0,0-4.4-6.3,19.7,19.7,0,0,0-6.5-4,26.3,26.3,0,0,0-7.9-1.5,18.9,18.9,0,0,0-7.9,1.5,21.5,21.5,0,0,0-6.5,4,17.9,17.9,0,0,0-4.4,6.3A18.3,18.3,0,0,0,67.6,34" transform="translate(0 0)"/><path class="cls-1" d="M113.8,39.3a17.1,17.1,0,0,0,1.7,8.1,9.8,9.8,0,0,0,4.4,4.6,16.5,16.5,0,0,0,11.3.9,16.3,16.3,0,0,0,3.8-1.7,17.4,17.4,0,0,0,2.9-2.5c.6-1,1.3-2.1,1.7-2.9h.2v2.7a3.9,3.9,0,0,0,1.3,3.1,6,6,0,0,0,3.5,1h8.6V44.9h-2.9l-1.3-.6a1.8,1.8,0,0,1-.4-1.3V15.3h-9.2V32.4a18.6,18.6,0,0,1-.6,4.8,8.6,8.6,0,0,1-2.1,4,6.8,6.8,0,0,1-3.3,2.7,10.2,10.2,0,0,1-4.4,1,5.8,5.8,0,0,1-3.5-1,4.4,4.4,0,0,1-1.7-2.5,12,12,0,0,1-.4-4V20.3a5,5,0,0,0-1.3-3.8,5,5,0,0,0-3.8-1.3h-8.8v8.1h2.9l1.3.4a1.8,1.8,0,0,1,.4,1.3V39.3Z" transform="translate(0 0)"/><path class="cls-1" d="M172.7,45.5a7.1,7.1,0,0,1-4.8-1.5,7.7,7.7,0,0,1-3.1-4,14.7,14.7,0,0,1-1.3-6.3,12.8,12.8,0,0,1,.8-5,8,8,0,0,1,2.1-3.5,10.5,10.5,0,0,1,2.9-2.3,10,10,0,0,1,3.5-.8,8.5,8.5,0,0,1,4,1,7.9,7.9,0,0,1,2.9,2.5,10.2,10.2,0,0,1,1.7,3.8,15.2,15.2,0,0,1,.6,4.2,13.2,13.2,0,0,1-.8,5.2,8,8,0,0,1-2.1,3.5,7.2,7.2,0,0,1-2.9,2.1,4.9,4.9,0,0,1-3.5,1.1M154.1,34.1a21.8,21.8,0,0,0,1.3,7.9,19.8,19.8,0,0,0,3.3,6.1,14.5,14.5,0,0,0,5.2,4,19.3,19.3,0,0,0,6.9,1.5,14.6,14.6,0,0,0,4.4-.6,11.1,11.1,0,0,0,3.3-1.5l2.3-1.9a8.1,8.1,0,0,0,1.3-1.5l.4-.6h.2v1.3a5.3,5.3,0,0,0,.4,1.9,2.5,2.5,0,0,0,1.5,1.3c.4.6,1.3.8,2.5.8h8.6V45.1h-2.9l-1.3-.4a2.8,2.8,0,0,1-.4-1.3V5.9a5,5,0,0,0-1.3-3.8A5.3,5.3,0,0,0,186,.8h-8.8V8.5h2.9l1.3.4a1.8,1.8,0,0,1,.4,1.3v8.6h-.2l-.4-.4-1-1-2.1-1.3a11.3,11.3,0,0,0-3.1-1,27.2,27.2,0,0,0-4.2-.4,14.5,14.5,0,0,0-6.9,1.5,14.9,14.9,0,0,0-5.4,4,18.4,18.4,0,0,0-3.5,6.1,37.2,37.2,0,0,0-.9,7.8" transform="translate(0 0)"/><path class="cls-1" d="M213.5,31.7,219.1,16c.2-.6.4-1.5.6-2.3s.4-1.7.6-2.3a10.8,10.8,0,0,0,.4-1.9,2,2,0,0,0,.2-.8h.2a3.1,3.1,0,0,0,.2.8,11.8,11.8,0,0,1,.4,1.9l.6,2.3c.2.8.4,1.7.6,2.3l5.6,15.7ZM197.9,52.5h4a10.6,10.6,0,0,0,2.9-.4,3.5,3.5,0,0,0,1.9-1.3,27.3,27.3,0,0,0,1.3-2.5l4-10.6h19l4,10.6a3.6,3.6,0,0,0,1,2.5,3.7,3.7,0,0,0,1.7,1.3,10,10,0,0,0,2.9.4h4.2V46.3h-1a3.6,3.6,0,0,1-1.5-.2c-.4-.2-.6-.6-.8-1.3L225.4,1.2h-7.7L201.6,44.8a2.4,2.4,0,0,1-.8,1.3,1.8,1.8,0,0,1-1.5.2h-1v6.3h-.4Z" transform="translate(0 0)"/><path class="cls-1" d="M245.9,34.2a18,18,0,0,0,1.5,7.7,19.6,19.6,0,0,0,4,6.1,17,17,0,0,0,6.3,4,20.6,20.6,0,0,0,7.9,1.5,20.1,20.1,0,0,0,5.2-.6,16,16,0,0,0,4.2-1.7,16.8,16.8,0,0,0,3.1-1.9l1.9-1.7.6-.6-3.1-5-.4.6a3.3,3.3,0,0,1-1.5,1.3l-2.3,1.5c-.8.5-2.1.8-3.1,1.3a25,25,0,0,1-3.8.6,14.5,14.5,0,0,1-5-.8,17.9,17.9,0,0,1-4.2-2.5,10.9,10.9,0,0,1-2.9-4.2,16.9,16.9,0,0,1-1-5.6,15.7,15.7,0,0,1,1-5.4,11.7,11.7,0,0,1,2.7-4.2,9.2,9.2,0,0,1,4-2.7,13.1,13.1,0,0,1,5-1l2.3.2,2.3.6a10.6,10.6,0,0,0,1.5,1.5,2.4,2.4,0,0,1,.6,1.7V27h6.5V23.2a6.1,6.1,0,0,0-1-3.3,5.6,5.6,0,0,0-2.3-2.3l-3.3-1.5-3.5-.8-3.1-.2a19.8,19.8,0,0,0-8.1,1.5,16.2,16.2,0,0,0-6.3,4.2,18,18,0,0,0-4,6.1,14.6,14.6,0,0,0-1.7,7.3" transform="translate(0 0)"/><path class="cls-1" d="M290,41.8a5.6,5.6,0,0,1,1-3.3,7,7,0,0,1,2.7-2.1,16,16,0,0,1,3.8-1l4-.4h5.4v1a15.2,15.2,0,0,1-.6,4.2,8,8,0,0,1-2.1,3.8,10.1,10.1,0,0,1-3.1,2.7,9.1,9.1,0,0,1-4,1,8.4,8.4,0,0,1-4-.8,5.9,5.9,0,0,1-2.3-2.1,5.6,5.6,0,0,1-.8-3m-7.1.4a11.4,11.4,0,0,0,1,4.8,10,10,0,0,0,2.9,3.6,11,11,0,0,0,4,2.1,18.2,18.2,0,0,0,4.6.6,11.1,11.1,0,0,0,4.6-.8,7.2,7.2,0,0,0,3.3-1.9l2.3-2.1a7.2,7.2,0,0,0,1.3-1.9l.4-.8h.2v2.1a5,5,0,0,0,1,3.1c.6.8,1.9,1,3.5,1h6.7V45.9h-2.9l-1.3-.4a1.8,1.8,0,0,1-.4-1.3V28.6a23.4,23.4,0,0,0-.6-5.6,10.4,10.4,0,0,0-2.5-4.6,11.3,11.3,0,0,0-4.6-3.1,25.2,25.2,0,0,0-7.5-1l-2.7.2-3.3.6a7.4,7.4,0,0,0-3.3,1.3,6.4,6.4,0,0,0-2.5,2.1,5.2,5.2,0,0,0-1,3.1v3.7h6.7V23.2a2.2,2.2,0,0,1,.6-1.5,3.8,3.8,0,0,1,1.7-.8,6.5,6.5,0,0,1,2.1-.4l1.7-.2a10,10,0,0,1,4.6.8,5.9,5.9,0,0,1,2.7,2.7A12.9,12.9,0,0,1,307,29v.6h-1.7l-3.8.2-4.8.4a22.7,22.7,0,0,0-5,1.2,15.3,15.3,0,0,0-4.4,2.3,9.2,9.2,0,0,0-3.1,3.6,8.5,8.5,0,0,0-1.3,4.9" transform="translate(0 0)"/><path class="cls-1" d="M338.2,47.4a8.7,8.7,0,0,1-5.4-1.7,10.2,10.2,0,0,1-3.8-4.6,18.4,18.4,0,0,1-1.3-6.9,16.1,16.1,0,0,1,.8-5.6,14.2,14.2,0,0,1,2.3-4.2,13.1,13.1,0,0,1,3.3-2.5,9.8,9.8,0,0,1,4.2-.8,10.4,10.4,0,0,1,4.6,1,8.4,8.4,0,0,1,3.3,2.9,15.9,15.9,0,0,1,1.9,4.2,18.6,18.6,0,0,1,.6,4.8,18.8,18.8,0,0,1-.8,6.1,16.5,16.5,0,0,1-2.3,4.2,9,9,0,0,1-3.3,2.3,15.6,15.6,0,0,1-4.1.8M320.5,34.1a32.8,32.8,0,0,0,1,7.9,19.9,19.9,0,0,0,3.3,6.1,14.5,14.5,0,0,0,5.2,4,18.2,18.2,0,0,0,6.7,1.5,17.5,17.5,0,0,0,4.8-.6,9.3,9.3,0,0,0,3.3-1.7,7.8,7.8,0,0,0,2.3-2.1l1.3-1.7.4-.6h.2V49a4,4,0,0,0,1,2.9,5.2,5.2,0,0,0,3.5,1h6.9V46.8h-2.9l-1.3-.4a1.8,1.8,0,0,1-.4-1.3V5.9a5,5,0,0,0-1-3.5c-.8-.8-1.9-1-3.5-1h-7.1V7.3h2.9l1.3.4a1.8,1.8,0,0,1,.4,1.3V20.5h-.2l-.4-.6a7,7,0,0,0-1.3-1.5c-.6-.6-1.3-1-2.1-1.7a12.8,12.8,0,0,0-3.3-1.5,14.6,14.6,0,0,0-4.4-.6,13.7,13.7,0,0,0-6.7,1.5,12.8,12.8,0,0,0-5.2,4,18.4,18.4,0,0,0-3.5,6.1,23.4,23.4,0,0,0-1.2,7.9" transform="translate(0 0)"/><path class="cls-1" d="M370.1,29.8a11.7,11.7,0,0,1,2.1-5.2,8.1,8.1,0,0,1,3.8-3.1,13.1,13.1,0,0,1,5-1,10,10,0,0,1,4.2,1,7.7,7.7,0,0,1,3.1,3.1,10.5,10.5,0,0,1,1.3,5.2ZM362.4,34a18.6,18.6,0,0,0,1.5,7.7,16.6,16.6,0,0,0,4,6.1,20.4,20.4,0,0,0,6.3,4.2,19.9,19.9,0,0,0,7.9,1.5,18.6,18.6,0,0,0,4.8-.6l4-1.3a11.1,11.1,0,0,0,2.9-1.7l1.9-1.3.6-.6-3.1-5-.4.4-1.5,1L389,45.7a12.4,12.4,0,0,1-2.9,1,9.9,9.9,0,0,1-3.5.6,11.7,11.7,0,0,1-4.6-.8,16,16,0,0,1-4-2.3,8.2,8.2,0,0,1-2.7-4A24.7,24.7,0,0,1,370,35h26.9V31.8a23.5,23.5,0,0,0-1-6.7,14.7,14.7,0,0,0-2.9-5.4,13.8,13.8,0,0,0-5-3.8,22,22,0,0,0-6.9-1.5,16.2,16.2,0,0,0-7.3,1.5,14.7,14.7,0,0,0-5.8,4,23.9,23.9,0,0,0-4,6.1,21.5,21.5,0,0,0-1.6,8" transform="translate(0 0)"/><path class="cls-1" d="M404.4,52.6h7.1V35.7a10.6,10.6,0,0,1,.2-2.5,9.3,9.3,0,0,1,.4-2.3,20,20,0,0,1,1.5-3.8,10.9,10.9,0,0,1,2.3-3.1,8.5,8.5,0,0,1,3.1-2.1,7.4,7.4,0,0,1,3.8-.8,5.2,5.2,0,0,1,3.3.8A4.8,4.8,0,0,1,428,24a12.3,12.3,0,0,1,.8,2.9,19.4,19.4,0,0,1,.2,3.5V52.5h7.1V35.7a11.4,11.4,0,0,1,.2-2.7,7.9,7.9,0,0,1,.4-2.3,12.3,12.3,0,0,1,1.5-3.5,16.3,16.3,0,0,1,2.3-2.9,9.8,9.8,0,0,1,2.9-2.1,10,10,0,0,1,3.5-.8,7.2,7.2,0,0,1,3.3.6,3.9,3.9,0,0,1,1.9,1.9,12.3,12.3,0,0,1,.8,2.9,19.4,19.4,0,0,1,.2,3.5V47.8a5.5,5.5,0,0,0,1,3.6c.8.8,1.9,1,3.5,1h7.1V46.3h-2.9a2.8,2.8,0,0,1-1.2-.4c-.2,0-.4-.4-.4-1V28.8c0-4.8-1-8.1-2.9-10.6s-5-3.5-9.2-3.5a16.7,16.7,0,0,0-4.4.6,13.5,13.5,0,0,0-3.8,1.9,16.3,16.3,0,0,0-3.1,2.7,28.2,28.2,0,0,0-2.1,3.1h-.2a10.7,10.7,0,0,0-3.8-6.3c-1.9-1.5-4.4-2.1-7.5-2.1a14.2,14.2,0,0,0-4.2.6,13.5,13.5,0,0,0-3.8,1.9,18.6,18.6,0,0,0-2.9,2.7,13,13,0,0,0-1.9,3.1h-.2V19.4a5,5,0,0,0-1-3.1,5.6,5.6,0,0,0-3.5-1h-6.6v6H402l1.3.4a1.8,1.8,0,0,1,.4,1.3V52.6Z" transform="translate(0 0)"/><path class="cls-1" d="M466.8,59.1l-2.9,5,.6.6a8.3,8.3,0,0,0,1.7,1.2l2.7,1.3a10.4,10.4,0,0,0,3.8.6,12.9,12.9,0,0,0,4.8-1,11.4,11.4,0,0,0,4-2.9,14.3,14.3,0,0,0,2.9-4.8L499,23a4.9,4.9,0,0,1,.8-1.3,3.2,3.2,0,0,1,1.5-.2h1V15.4h-4.2a4.7,4.7,0,0,0-2.5.4,4.8,4.8,0,0,0-1.7,1,20.9,20.9,0,0,0-1.3,2.3L484.9,40q-.3.9-.6,2.1a6.8,6.8,0,0,0-.4,1.7c0,.4-.2.6-.2.8h-.2a3.2,3.2,0,0,0-.2-.8,7.9,7.9,0,0,0-.4-1.7q-.3-.9-.6-2.1L474,19.1a8.2,8.2,0,0,0-1.3-2.3,2.7,2.7,0,0,0-1.7-1,8.1,8.1,0,0,0-2.5-.4h-4.2v6.1h.8a3.6,3.6,0,0,1,1.5.2c.4.2.6.6.8,1.3l12.5,29.2-1.7,4a11.7,11.7,0,0,1-2.7,4,6.2,6.2,0,0,1-3.8,1.5,6.5,6.5,0,0,1-2.1-.4l-1.7-.8-1-.8a.6.6,0,0,0-.1-.6" transform="translate(0 0)"/></svg>