<svg data-name="Layer 1" xmlns="http://www.w3.org/2000/svg" viewBox="0 0 116.52 126.4"><title>logo-white</title><path data-name="path490" d="M54.2 13.5a11.43 11.43 0 0 0-6.9 14.6 11.26 11.26 0 0 0 8.1 7.2c1.6.4 3.5 1 4.4 3l4.5 9.6c.6 1.4.5 2.4-.4 4.2a5 5 0 0 0 0 3.6 5.16 5.16 0 0 0 9.7-3.5 5.56 5.56 0 0 0-2.2-2.8c-2-1.1-2.6-1.8-3-3.1l-2.3-10.2c-.5-2.1-.1-3.2 1.1-4.9A12 12 0 0 0 69 20.3a11.52 11.52 0 0 0-10.8-7.6 11.4 11.4 0 0 0-4 .8m29 22.6A11.45 11.45 0 0 0 81 46.7c.5 1.5.9 3.5-.4 5.2l-6 8.8c-.9 1.1-1.9 1.6-3.9 1.9a4.56 4.56 0 0 0-3.1 1.8 5.25 5.25 0 0 0 8 6.8 4.75 4.75 0 0 0 1.2-3.4c0-2.2.2-3.2 1.2-4.1l7.8-7.2a4.61 4.61 0 0 1 4.8-1.4A11.44 11.44 0 0 0 99.4 35a11 11 0 0 0-7.4-2.8 10.67 10.67 0 0 0-8.8 3.9m-69.9 5.8a11.61 11.61 0 0 0 9.2 13.4 11.07 11.07 0 0 0 10.4-3.4c1.1-1.1 2.6-2.5 4.8-2.2l10.6.9c1.5.1 2.4.8 3.5 2.5a6.25 6.25 0 0 0 3.1 1.9 5.15 5.15 0 0 0 6-4.2 5.2 5.2 0 0 0-4.2-6 5.27 5.27 0 0 0-3.5.6c-2 1.1-2.9 1.4-4.2 1l-10.2-3.1a4.76 4.76 0 0 1-3.6-3.5 11.36 11.36 0 0 0-8.5-6.9 13.4 13.4 0 0 0-2-.1 10.72 10.72 0 0 0-11.4 9.1m28 13.2a4.75 4.75 0 0 0-1.2 3.4c0 2.2-.2 3.2-1.2 4.1l-7.8 7.3a4.61 4.61 0 0 1-4.8 1.4A11.43 11.43 0 1 0 33.6 90a11.45 11.45 0 0 0 2.2-10.6c-.5-1.5-.9-3.5.4-5.2l6-8.8a4.77 4.77 0 0 1 3.9-1.9 4.72 4.72 0 0 0 3.1-1.8 5.24 5.24 0 0 0-.6-7.4 4.75 4.75 0 0 0-3.4-1.2 7.33 7.33 0 0 0-3.9 2m4.8 12.1a5.07 5.07 0 0 0-3.1 6.6 5.56 5.56 0 0 0 2.2 2.8c2 1.1 2.6 1.8 3 3.1l2.4 10.4c.5 2.1.1 3.2-1.1 4.9a12 12 0 0 0-1.8 10.9 11.42 11.42 0 1 0 21.5-7.7 11.26 11.26 0 0 0-8.1-7.2c-1.6-.4-3.5-1-4.4-3l-4.5-9.6c-.6-1.4-.5-2.4.4-4.2a5 5 0 0 0 0-3.6 5.36 5.36 0 0 0-4.9-3.5 2.26 2.26 0 0 0-1.6.1m37.7 7.3c-1.1 1.1-2.6 2.5-4.8 2.2l-10.6-.8c-1.4-.1-2.4-.8-3.5-2.5a6.25 6.25 0 0 0-3.1-1.9 5.15 5.15 0 0 0-6 4.2 5.2 5.2 0 0 0 4.2 6 5.27 5.27 0 0 0 3.5-.6c2-1.1 2.9-1.4 4.2-1l10.4 3.1a4.79 4.79 0 0 1 3.6 3.4 11.49 11.49 0 1 0 12.7-15.7 14.8 14.8 0 0 0-2-.1 11.82 11.82 0 0 0-8.6 3.7" fill="#fff"/><path data-name="path610" d="M44.7 115.8a20.06 20.06 0 0 0 33.9-14 6.75 6.75 0 0 1 .2-1.4 2.53 2.53 0 0 1 3.4-1 20 20 0 0 0 14.9 1.6 20.65 20.65 0 0 0 11.8-9c0-.1 0-.1.1-.2l2.1 1.2-2.1-1.2a19.05 19.05 0 0 0 2-15 19.8 19.8 0 0 0-8.9-12 2.19 2.19 0 0 1-1-.9 2.39 2.39 0 0 1 .8-3.4l1.2 2.1-1.2-2.1a20.28 20.28 0 0 0 8.9-12.1 19.8 19.8 0 0 0-2-14.6l-.1-.1a20 20 0 0 0-26.9-7.4 2.84 2.84 0 0 1-1.2.4 2.39 2.39 0 0 1-2.5-2.4l2.5-.1-2.5.1A20 20 0 0 0 72 10.5a20 20 0 0 0-28 .2 20 20 0 0 0-6 13.8 3.4 3.4 0 0 1-.2 1.4 2.53 2.53 0 0 1-3.4 1 20 20 0 0 0-14.9-1.6 20.65 20.65 0 0 0-11.8 9c0 .1 0 .1-.1.2l-2.1-1.2 2.1 1.2a20 20 0 0 0 6.9 27 2.19 2.19 0 0 1 1 .9 2.39 2.39 0 0 1-.8 3.4l-1.2-2.1 1.2 2.1a19.52 19.52 0 0 0-8.9 12 19.8 19.8 0 0 0 2 14.6l.1.1a19.54 19.54 0 0 0 12 9.2 19.59 19.59 0 0 0 14.9-1.8 2.84 2.84 0 0 1 1.2-.4 2.39 2.39 0 0 1 2.5 2.4l-2.5.1 2.5-.1a20.91 20.91 0 0 0 6.2 13.9m14 10.6a24.9 24.9 0 0 1-24.6-20.5 25.76 25.76 0 0 1-15.5.8A24.31 24.31 0 0 1 3.7 95.2l2.1-1.3-2.1 1.2c0-.1-.1-.1-.1-.2a24.89 24.89 0 0 1-2.5-18.2 24.64 24.64 0 0 1 8.1-13 24.78 24.78 0 0 1-8.4-13 25.46 25.46 0 0 1 2.5-18.8c0-.1.1-.1.1-.2a24.23 24.23 0 0 1 14.7-11.3 25.49 25.49 0 0 1 15.2.5 25.18 25.18 0 0 1 7.1-13.8A25.66 25.66 0 0 1 58 0a23.83 23.83 0 0 1 17.2 7 25.42 25.42 0 0 1 7.2 13.5 25.76 25.76 0 0 1 15.5-.8 24.31 24.31 0 0 1 14.9 11.5l-2.1 1.2 2.1-1.2c0 .1.1.1.1.2a24.89 24.89 0 0 1 2.5 18.2 24.64 24.64 0 0 1-8.1 13 25.4 25.4 0 0 1 8.4 13 25 25 0 0 1-2.5 18.8c0 .1-.1.1-.1.2a23.88 23.88 0 0 1-14.6 11.2 25.49 25.49 0 0 1-15.2-.5 25.18 25.18 0 0 1-7.1 13.8 24.9 24.9 0 0 1-17.5 7.3" fill="#fff"/></svg>