<?xml version="1.0" encoding="utf-8"?>
<!-- Generator: Adobe Illustrator 22.1.0, SVG Export Plug-In . SVG Version: 6.00 Build 0)  -->
<svg version="1.1" id="Layer_1" xmlns="http://www.w3.org/2000/svg" xmlns:xlink="http://www.w3.org/1999/xlink" x="0px" y="0px"
	 viewBox="0 0 116.4 50" style="enable-background:new 0 0 116.4 50;" xml:space="preserve">
<style type="text/css">
	.st0{fill:#414042;}
	.st1{fill:#FE5000;}
</style>
<g>
	<path class="st0" d="M47.1,40h-5.8V9.6h5.8v11.2c0.9-1.1,3-2.2,5.2-2.2c6.1,0,9.5,5,9.5,11s-3.4,10.9-9.5,10.9
		c-2.2,0-4.3-1.1-5.2-2.2V40z M47.1,33c0.7,1.5,2.2,2.4,3.9,2.4c3.1,0,5-2.5,5-5.9s-1.9-5.9-5-5.9c-1.7,0-3.3,1-3.9,2.4V33z"/>
	<path class="st0" d="M87.3,18.6c4.3,0,6.9,3,6.9,7.7V40h-5.8V27.5c0-2.2-1-3.7-3-3.7c-1.5,0-2.9,0.9-3.2,2.7V40h-5.8V27.5
		c0-2.2-0.9-3.7-2.9-3.7c-1.5,0-2.9,0.9-3.3,2.7V40h-5.8V19.1H70v1.7c1-1.3,3-2.2,5.3-2.2c2.5,0,4.4,1.1,5.6,2.7
		C82.3,19.8,84.3,18.6,87.3,18.6z"/>
	<path class="st0" d="M106.5,18.6c5.3,0,8.6,3.1,9.2,7.5H110c-0.3-1.6-1.6-2.6-3.5-2.6c-2.7,0-4.3,2.4-4.3,6c0,3.5,1.6,5.9,4.3,5.9
		c1.9,0,3.1-1,3.5-2.6h5.7c-0.6,4.5-3.9,7.5-9.2,7.5c-5.9,0-10.1-4.5-10.1-10.9C96.5,23,100.6,18.6,106.5,18.6z"/>
</g>
<g>
	<g>
		<path class="st1" d="M4.9,49C3,49,1,47.5,1,44.6v-6.8c0-2.7,1.7-5.8,4.1-7.1l9.5-5.6l-9.5-5.6C2.8,18,1,15,1,12.3V5.4
			C1,2.5,3,1,5,1c0.8,0,1.7,0.2,2.5,0.7l21.4,12.7c1.5,0.9,2.3,2.3,2.3,3.7c0,1.5-0.9,2.9-2.3,3.7l-5.1,3l5.1,3
			c1.5,0.9,2.4,2.3,2.4,3.7c0,1.5-0.9,2.9-2.4,3.7L7.5,48.3C6.6,48.8,5.8,49,4.9,49z M19.2,27.8L7.5,34.7c-0.9,0.5-1.8,2.1-1.8,3.1
			v6.1l20.3-12L19.2,27.8z M5.7,6.2v6.1c0,1,0.9,2.6,1.8,3.1l11.7,6.9l6.9-4.1L5.7,6.2z"/>
	</g>
</g>
</svg>
