<?xml version="1.0" encoding="utf-8"?>
<!-- Generator: Adobe Illustrator 19.0.0, SVG Export Plug-In . SVG Version: 6.00 Build 0)  -->
<svg version="1.1" id="Layer_1" xmlns="http://www.w3.org/2000/svg" xmlns:xlink="http://www.w3.org/1999/xlink" x="0px" y="0px"
	 viewBox="0 0 385 95" style="enable-background:new 0 0 385 95;" xml:space="preserve">
<style type="text/css">
	.st0{fill:#414042;}
	.st1{fill:#EF5423;}
</style>
<g id="XMLID_16_">
	<path id="XMLID_31_" class="st0" d="M28,53.1c1.1,2.4,3.6,4,6.5,4c5.2,0,8.2-4.2,8.2-9.6c0-5.6-3.1-9.7-8.2-9.7
		c-2.8,0-5.4,1.7-6.5,4V53.1z M28,64.6h-9.6V14.5H28V33c1.5-1.9,4.9-3.6,8.6-3.6c10,0,15.6,8.2,15.6,18c0,9.9-5.6,18-15.7,18
		c-3.7,0-7.1-1.8-8.6-3.6L28,64.6z"/>
	<path id="XMLID_13_" class="st0" d="M94.2,29.4c7.1,0,11.3,4.9,11.3,12.7v22.5h-9.6V44.2c0-3.7-1.6-6.2-4.9-6.2
		c-2.5,0-4.7,1.5-5.3,4.5v22.2H76V44.2c0-3.7-1.5-6.2-4.8-6.2c-2.5,0-4.8,1.5-5.4,4.5v22.2h-9.6V30.2h9.5v2.9
		c1.7-2.2,4.9-3.6,8.7-3.6c4.1,0,7.3,1.9,9.2,4.4C86,31.4,89.3,29.4,94.2,29.4"/>
	<path id="XMLID_12_" class="st0" d="M125.9,29.4c8.6,0,14.1,5.1,15.1,12.4h-9.4c-0.5-2.6-2.6-4.2-5.7-4.2c-4.4,0-7.1,4-7.1,9.9
		c0,5.8,2.7,9.8,7.1,9.8c3.1,0,5.2-1.6,5.7-4.2h9.4c-1,7.4-6.5,12.4-15.1,12.4c-9.8,0-16.6-7.3-16.6-18
		C109.3,36.7,116.1,29.4,125.9,29.4"/>
	<path id="XMLID_17_" class="st1" d="M170.8,28.9c4.9,0,8.6,1.5,11.1,4.6c2.5,3.1,3.7,7.6,3.7,13.5c0,5.8-1.3,10.3-3.9,13.5
		c-2.6,3.2-6.3,4.7-11,4.7c-2.3,0-4.6-0.5-6.7-1.5c-2-1-3.6-2.5-4.7-4.4h-0.3l-0.9,5.3h-2V14.5h3.2v12.6c0,1.9,0,3.6-0.1,5.2
		l-0.1,2.7h0.2c1.3-2.1,2.9-3.7,4.8-4.6C165.9,29.4,168.1,28.9,170.8,28.9z M170.7,31.8c-4.1,0-7.1,1.2-8.8,3.5s-2.7,6.3-2.7,11.7
		v0.5c0,5.3,0.9,9.1,2.8,11.4c1.9,2.3,4.8,3.4,8.7,3.4c3.8,0,6.7-1.3,8.6-4c1.9-2.7,2.9-6.5,2.9-11.4
		C182.2,36.9,178.3,31.8,170.7,31.8L170.7,31.8z M197.5,64.6h-3.2V14.5h3.2V64.6z M237.1,47.1c0,5.7-1.4,10.2-4.2,13.4
		c-2.8,3.2-6.6,4.8-11.5,4.8c-3.1,0-5.8-0.7-8.1-2.2s-4.1-3.6-5.4-6.4c-1.2-2.8-1.9-6-1.9-9.6c0-5.7,1.4-10.2,4.2-13.4
		c2.8-3.2,6.6-4.8,11.4-4.8c4.8,0,8.6,1.6,11.3,4.8C235.8,37,237.1,41.4,237.1,47.1z M209.5,47.1c0,4.8,1.1,8.6,3.2,11.3
		c2.1,2.7,5.1,4,9,4c3.9,0,6.9-1.3,9-4c2.1-2.7,3.2-6.4,3.2-11.3c0-4.8-1.1-8.6-3.2-11.2c-2.1-2.7-5.1-4-9-4c-3.9,0-6.8,1.3-8.9,4
		C210.5,38.5,209.5,42.2,209.5,47.1L209.5,47.1z M273,29.6v2.2l-7.2,0.5c1.9,2.4,2.9,5,2.9,7.9c0,3.4-1.1,6.1-3.4,8.2
		c-2.2,2.1-5.3,3.1-9,3.1c-1.1,0-2.2,0-3.4-0.2c-1.1,0.6-2.1,1.4-2.9,2.3c-0.6,0.8-1,1.8-1,2.9c0,1.1,0.4,1.9,1.3,2.5
		c0.8,0.5,2.3,0.8,4.3,0.8h6.1c3.8,0,6.7,0.8,8.7,2.3c2,1.5,3,3.8,3,6.8c0,3.7-1.5,6.5-4.5,8.6c-3,2-7.3,3-12.8,3
		c-4.4,0-7.8-0.8-10.2-2.5c-2.4-1.7-3.6-4.1-3.6-7.1c0-2.4,0.7-4.4,2.2-6c1.5-1.6,3.5-2.7,6.1-3.3c-1-0.4-1.9-1.1-2.5-1.9
		c-0.6-0.8-1-1.8-1-2.9c0-2.3,1.5-4.4,4.5-6.2c-2-0.8-3.6-2.2-4.8-3.9c-1.2-1.8-1.7-4-1.7-6.2c0-3.5,1.1-6.3,3.3-8.4
		c2.2-2.1,5.2-3.2,9-3.2c2.3,0,4.1,0.2,5.3,0.7L273,29.6z M244.6,70.6c0,4.8,3.6,7.2,10.7,7.2c9.2,0,13.8-2.9,13.8-8.8
		c0-2.1-0.7-3.6-2.2-4.6c-1.4-0.9-3.8-1.4-7-1.4h-5.7C247.9,63,244.6,65.5,244.6,70.6z M247.3,40.5c0,2.7,0.8,4.8,2.5,6.3
		s3.8,2.2,6.6,2.2c2.9,0,5.2-0.7,6.7-2.2c1.6-1.5,2.3-3.6,2.3-6.4c0-3-0.8-5.2-2.4-6.7c-1.6-1.5-3.8-2.2-6.7-2.2
		c-2.8,0-5,0.8-6.6,2.4C248.1,35.5,247.3,37.7,247.3,40.5z M302.1,55.5c0,3.1-1.2,5.5-3.6,7.2c-2.4,1.7-5.8,2.5-10.1,2.5
		c-4.7,0-8.4-0.7-11.1-2.2v-3.4c3.5,1.7,7.3,2.7,11.1,2.6c3.5,0,6.1-0.6,7.9-1.7c1.8-1.1,2.7-2.7,2.7-4.6c0-1.8-0.7-3.2-2.1-4.4
		c-1.4-1.2-3.8-2.4-7-3.5c-3.5-1.3-6-2.4-7.4-3.3c-1.3-0.8-2.4-1.8-3.2-3.1c-0.7-1.1-1.1-2.5-1.1-4.2c0-2.6,1.1-4.7,3.3-6.2
		c2.2-1.5,5.3-2.3,9.2-2.3c3.7,0,7.4,0.7,10.8,2.1l-1.2,2.9c-3.4-1.4-6.6-2.1-9.6-2.1c-2.9,0-5.1,0.5-6.8,1.4
		c-1.7,0.9-2.5,2.3-2.5,3.9c0,1.8,0.6,3.3,1.9,4.4c1.3,1.1,3.8,2.3,7.6,3.7c3.2,1.1,5.5,2.2,6.9,3.1c1.3,0.8,2.4,1.8,3.2,3.1
		C301.8,52.7,302.2,54.1,302.1,55.5z M360.6,23.5h-4v-2.8c0-3.3-2.7-6.1-6.1-6.1H315c-3.3,0-6.1,2.7-6.1,6.1v21.4
		c0,3.3,2.7,6.1,6.1,6.1h2.6v7.1c0,0.6,0.5,1.1,1.1,1.1c0.3,0,0.5-0.1,0.7-0.2l10-8h21c3.3,0,6.1-2.7,6.1-6.1V25.7h4
		c2.1,0,3.8,1.7,3.8,3.8V51c0,2.1-1.7,3.9-3.8,3.9c0,0,0,0,0,0h-3.7c-0.6,0-1.1,0.5-1.1,1.1c0,0,0,0,0,0v5.9l-8.5-6.8
		c-0.2-0.2-0.4-0.2-0.7-0.2h-12.2c-0.6,0-1.1,0.5-1.1,1.1s0.5,1.1,1.1,1.1h11.8l10,8c0.2,0.2,0.4,0.2,0.7,0.2c0.2,0,0.3,0,0.5-0.1
		c0.4-0.2,0.6-0.6,0.6-1v-7.1h2.6c3.3,0,6.1-2.7,6.1-6.1V29.6C366.6,26.2,363.9,23.5,360.6,23.5z M354.3,42.1c0,2.1-1.7,3.8-3.8,3.8
		H329c-0.3,0-0.5,0.1-0.7,0.2l-8.5,6.8v-5.9c0-0.6-0.5-1.1-1.1-1.1H315c-2.1,0-3.8-1.7-3.8-3.8V20.7c0-2.1,1.7-3.8,3.8-3.8h35.5
		c2.1,0,3.8,1.7,3.8,3.8V42.1z"/>
</g>
</svg>
