<?xml version="1.0" encoding="utf-8"?>
<!-- Generator: Adobe Illustrator 20.1.0, SVG Export Plug-In . SVG Version: 6.00 Build 0)  -->
<svg version="1.1" id="Layer_1" xmlns="http://www.w3.org/2000/svg" xmlns:xlink="http://www.w3.org/1999/xlink" x="0px" y="0px"
	 viewBox="0 0 48 48" style="enable-background:new 0 0 48 48;" xml:space="preserve">
<style type="text/css">
	.st0{fill:#FFFFFF;}
	.st1{fill:#4E71A8;}
	.st2{display:none;fill:#1686B0;}
</style>
<circle class="st0" cx="24" cy="24" r="24"/>
<path class="st1" d="M31.4,18.3h-5v-3.3c0-1.3,0.9-1.5,1.4-1.5c0.6,0,3.5,0,3.5,0V8h-4.9c-5.5,0-6.7,4.2-6.7,6.7v3.7h-3.1V24h3.1
	c0,7.3,0,16,0,16h6.7c0,0,0-8.8,0-16h4.5L31.4,18.3z"/>
<path class="st2" d="M17.4,34.9h-4.6V20.1h4.6V34.9z M14.9,18.2L14.9,18.2c-1.7,0-2.8-1.1-2.8-2.6s1.1-2.6,2.8-2.6s2.8,1.1,2.8,2.6
	C17.7,17.1,16.7,18.2,14.9,18.2z M35.9,34.9h-5.3v-7.7c0-2-0.8-3.4-2.6-3.4c-1.4,0-2.1,0.9-2.5,1.8c-0.1,0.3-0.1,0.8-0.1,1.2v8h-5.2
	c0,0,0.1-13.6,0-14.8h5.2v2.3c0.3-1,2-2.5,4.6-2.5c3.3,0,5.9,2.1,5.9,6.7V34.9z"/>
</svg>
