<?xml version="1.0" encoding="utf-8"?>
<!-- Generator: Adobe Illustrator 20.1.0, SVG Export Plug-In . SVG Version: 6.00 Build 0)  -->
<svg version="1.1" id="Layer_1" xmlns="http://www.w3.org/2000/svg" xmlns:xlink="http://www.w3.org/1999/xlink" x="0px" y="0px"
	 viewBox="0 0 48 48" style="enable-background:new 0 0 48 48;" xml:space="preserve">
<style type="text/css">
	.st0{fill:#FFFFFF;}
	.st1{display:none;fill:#4E71A8;}
	.st2{display:none;fill:#1686B0;}
	.st3{display:none;fill:#CF2120;}
	.st4{fill:#1DA1F2;}
</style>
<circle class="st0" cx="24" cy="24" r="24"/>
<path class="st1" d="M31.4,18.3h-5v-3.3c0-1.3,0.9-1.5,1.4-1.5c0.6,0,3.5,0,3.5,0V8h-4.9c-5.5,0-6.7,4.2-6.7,6.7v3.7h-3.1V24h3.1
	c0,7.3,0,16,0,16h6.7c0,0,0-8.8,0-16h4.5L31.4,18.3z"/>
<path class="st2" d="M15.1,38.7H8.9V18.8h6.2V38.7z M11.8,16.2L11.8,16.2c-2.3,0-3.8-1.5-3.8-3.5s1.5-3.5,3.8-3.5s3.8,1.5,3.8,3.5
	C15.5,14.7,14.2,16.2,11.8,16.2z M40,38.7h-7.1V28.3c0-2.7-1.1-4.6-3.5-4.6c-1.9,0-2.8,1.2-3.4,2.4c-0.1,0.4-0.1,1.1-0.1,1.6v10.8
	h-7c0,0,0.1-18.3,0-19.9h7v3.1c0.4-1.3,2.7-3.4,6.2-3.4c4.4,0,7.9,2.8,7.9,9V38.7z"/>
<path class="st3" d="M12.6,40c0-10.8,0-21.4,0-32c7.8,5.4,15.4,10.9,23.1,16.3C28.1,29.5,20.4,34.7,12.6,40z"/>
<path class="st4" d="M40,14.2c-1.1,0.6-2.5,0.9-3.8,1c1.3-0.8,2.3-2.1,2.9-3.6c-1.2,0.8-2.7,1.3-4.1,1.6c-1.2-1.2-2.9-2-4.8-2
	c-3.6,0-6.6,2.9-6.6,6.6c0,0.6,0.1,1,0.2,1.5c-5.5-0.2-10.3-2.9-13.5-6.8c-0.6,1-0.9,2.1-0.9,3.2c0,2.2,1.1,4.3,2.9,5.5
	c-1,0-2-0.3-3-0.8v0.1c0,3.1,2.2,5.8,5.3,6.4c-0.6,0.1-1.1,0.2-1.7,0.2c-0.4,0-0.8,0-1.2-0.1c0.8,2.6,3.2,4.5,6.2,4.6
	c-2.2,1.8-5,2.8-8.2,2.8c-0.6,0-1,0-1.6-0.1c2.9,1.9,6.4,2.9,10.1,2.9c12.1,0,18.7-10,18.7-18.7c0-0.3,0-0.6,0-0.9
	C38,16.7,39.1,15.6,40,14.2L40,14.2z"/>
</svg>
