<?xml version="1.0" encoding="utf-8"?>
<!-- Generator: Adobe Illustrator 23.0.3, SVG Export Plug-In . SVG Version: 6.00 Build 0)  -->
<svg version="1.1" id="Logos" xmlns="http://www.w3.org/2000/svg" xmlns:xlink="http://www.w3.org/1999/xlink" x="0px" y="0px"
	 width="1586.9px" height="247.6px" viewBox="0 0 1586.9 247.6" style="enable-background:new 0 0 1586.9 247.6;"
	 xml:space="preserve">
<style type="text/css">
	.st0{fill:#FFFFFF;}
	.st1{fill:#CC0000;}
	.st2{fill:#EE0000;}
	.st3{fill:#A30000;}
</style>
<title>Logo-Red_Hat-Product Logo copy 2-RGB</title>
<path class="st0" d="M238.9,225.2c-21.2,0-37.9-16.5-37.9-37.5s16.6-37.6,37.9-37.6s38,16.5,38,37.6S260.2,225.2,238.9,225.2z
	 M238.9,160.2c-15.1,0-26.7,11.9-26.7,27.5s11.6,27.5,26.7,27.5s26.8-12,26.8-27.5S254.1,160.2,238.9,160.2z"/>
<path class="st0" d="M287.3,171.1h10.3v5.1c4.5-3.9,10.3-6,16.2-5.9c15,0,26.7,12,26.7,27.2s-11.8,27.4-26.9,27.4
	c-5.7,0-11.3-1.8-15.9-5.2v25.9h-10.4L287.3,171.1L287.3,171.1z M297.7,185.7v23.9c3.3,3.9,8.8,6.2,14.8,6.2
	c10.2,0,17.9-7.8,17.9-18.2s-7.8-18.3-17.9-18.3C306.4,179.3,301.1,181.6,297.7,185.7L297.7,185.7z"/>
<path class="st0" d="M376,225c-15.6,0-27.8-12-27.8-27.5c0-15.3,11.6-27.2,26.5-27.2c14.6,0,25.6,12.1,25.6,27.7v3h-41.8
	c1.3,8.8,9,15.3,17.9,15.2c4.9,0.1,9.6-1.6,13.4-4.7l6.6,6.5C390.7,222.7,383.4,225.2,376,225z M358.6,193.2H390
	c-1.6-8.2-7.8-14.2-15.5-14.2C366.5,179,360.2,184.7,358.6,193.2L358.6,193.2z"/>
<path class="st0" d="M410.2,171.1h10.4v5.3c4.2-4.2,10-6.5,15.9-6.4c12.2,0,20.7,8.4,20.7,20.7V224h-10.4v-31.5
	c0-8.3-5.1-13.4-13.1-13.4c-5.3-0.2-10.2,2.4-13.1,6.9v38h-10.4V171.1z"/>
<path class="st0" d="M470.5,204.3c7.9,7.7,16,11.4,25.1,11.4c10.5,0,17.7-5,17.7-12.2c0-6.4-4.2-9.7-14.8-11.4l-12.2-2
	c-13.3-2.2-19.9-8.4-19.9-18.9c0-12.7,10.6-20.9,26.8-20.9c10.6,0,20.9,3.5,29.3,9.9l-6,8.3c-7.9-6-15.7-8.9-23.8-8.9
	c-9.5,0-15.8,4.4-15.8,10.8c0,5.9,3.6,8.7,13,10.3l11.8,1.9c15.4,2.5,22.4,8.8,22.4,20.2c0,13.4-11.7,22.4-29,22.4
	c-11.7,0-23-4.7-31.2-13.1L470.5,204.3z"/>
<path class="st0" d="M533,151.2l10.4-2.3v27.5c4.2-4.2,10-6.5,15.9-6.4c12.2,0,20.7,8.4,20.7,20.7V224h-10.4v-31.5
	c0-8.3-5.1-13.4-13.1-13.4c-5.3-0.2-10.2,2.4-13.1,6.9v38H533V151.2z"/>
<path class="st0" d="M590.8,156.1c0-3.5,2.8-6.4,6.3-6.4l0,0c3.6-0.1,6.6,2.6,6.7,6.2c0.1,3.6-2.6,6.6-6.2,6.7c-0.2,0-0.3,0-0.5,0
	C593.6,162.5,590.7,159.7,590.8,156.1L590.8,156.1z M602.3,224h-10.4v-52.9h10.4V224z"/>
<path class="st0" d="M622.5,171.1v-8c0-11,6.3-17.1,18-17.1c2.5,0,5.1,0.3,7.5,0.9v9c-2.1-0.7-4.3-1-6.5-0.9c-5.7,0-8.5,2.6-8.5,8.2
	v7.8h15v8.7h-15.1V224h-10.4v-44.2h-12.3v-8.7H622.5z"/>
<path class="st0" d="M663.8,179.8h-11.2v-8.7h11.2v-13.5l10.3-2.5v16h15.6v8.7h-15.6v28.7c0,5.4,2.2,7.4,7.8,7.4
	c2.6,0.1,5.2-0.4,7.6-1.2v8.7c-3.2,1-6.5,1.5-9.9,1.6c-10.3,0-15.8-4.9-15.8-14L663.8,179.8z"/>
<path class="st0" d="M779.3,207.8l5.2,5.4c-7.5,7.7-17.8,12.1-28.6,12c-20.7,0.3-37.8-16.2-38.2-36.9s16.2-37.8,36.9-38.2
	c0.4,0,0.8,0,1.2,0c11.3,0,21.7,4.4,28.8,12l-5.3,5.6c-6.1-6.5-14.6-10.2-23.5-10.2c-16.8,0-29.6,13.1-29.6,30.2
	s12.9,30.2,29.8,30.2C765.2,217.8,773.8,214.1,779.3,207.8z"/>
<path class="st0" d="M817.4,170.9c14.8,0,26.5,11.9,26.5,27S832.2,225,817.4,225s-26.6-11.9-26.6-27.1S802.5,170.9,817.4,170.9z
	 M836.3,197.9c0-11.3-8.3-20.2-18.9-20.2s-19,8.8-19,20.2s8.3,20.3,19,20.3S836.3,209.3,836.3,197.9L836.3,197.9z"/>
<path class="st0" d="M854.6,171.9h7.7v6.1c4-4.8,9.7-7.2,16.4-7.2c11.9,0,20.1,8.2,20.1,20.2v33h-7.6v-31.4c0-9.3-5.6-15-14.6-15
	c-5.9-0.1-11.4,2.9-14.3,8V224h-7.7L854.6,171.9L854.6,171.9z"/>
<path class="st0" d="M916.1,178.5h-11.2v-6.6h11.2v-13.2l7.6-2v15.2h15.7v6.6h-15.7v31.9c0,5.6,2.3,7.8,8,7.8
	c2.6,0.1,5.2-0.4,7.6-1.4v6.8c-3,0.9-6,1.4-9.2,1.4c-9,0-14-4.4-14-12.6L916.1,178.5z"/>
<path class="st0" d="M944.8,209.3c0-9.8,8-15.9,20.8-15.9c5.3,0,10.5,1.2,15.3,3.5V190c0-8.3-4.8-12.6-13.8-12.6
	c-5.1,0-10.1,1.4-16.3,4.6l-2.9-5.9c7.5-3.6,13.6-5.2,20-5.2c13.2,0,20.6,6.4,20.6,18.1v35H981v-5.1c-4.7,4.1-10.7,6.3-16.9,6.1
	C952.6,225,944.8,218.6,944.8,209.3z M965.4,218.9c6.2,0,11.3-1.9,15.5-6v-9.8c-4.3-2.9-9-4.2-15.1-4.2c-8.3,0-13.6,4-13.6,10.1
	C952.2,214.9,957.6,218.9,965.4,218.9L965.4,218.9z"/>
<path class="st0" d="M999.9,156.8c0-2.9,2.3-5.2,5.2-5.2c2.8,0,5.2,2.3,5.2,5.1v0.1c0,2.9-2.3,5.2-5.2,5.2
	C1002.2,161.9,999.9,159.6,999.9,156.8z M1009,224h-7.7v-52.1h7.7V224z"/>
<path class="st0" d="M1022,171.9h7.7v6.1c4.1-4.8,9.7-7.2,16.4-7.2c11.8,0,20.1,8.2,20.1,20.2v33h-7.6v-31.4c0-9.3-5.6-15-14.6-15
	c-5.9-0.1-11.4,2.9-14.4,8V224h-7.7L1022,171.9z"/>
<path class="st0" d="M1103.6,225c-14.7,0.2-26.7-11.6-26.8-26.3c0-0.2,0-0.5,0-0.7c0-15,11.3-26.8,25.7-26.8
	c13.8,0,24.7,11.9,24.7,26.8v2.4h-42.8c1.2,10.3,9.3,17.9,19.6,17.9c5.4,0,10.8-1.8,14.3-4.8l4.8,5.1
	C1117.5,222.9,1110.6,225.1,1103.6,225z M1084.6,194.2h34.8c-1.3-9.3-8.5-16.3-17.2-16.3C1093.2,177.9,1086,184.6,1084.6,194.2
	L1084.6,194.2z"/>
<path class="st0" d="M1137.8,171.9h7.7v7.4c2.9-5.3,8.5-8.6,14.6-8.5c1.7,0,3.3,0.2,4.9,0.7v7.1c-1.7-0.6-3.6-0.9-5.4-0.9
	c-6.4,0-11.3,3.8-14,10.7V224h-7.7L1137.8,171.9z"/>
<path class="st0" d="M1197.6,151.2h31.6c14.2,0,23.5,8.3,23.5,21s-9.4,21.1-23.5,21.1h-23.6V224h-8V151.2z M1205.6,158.4v28h23
	c9.9,0,16.1-5.4,16.1-14s-6.2-13.9-16.1-13.9L1205.6,158.4z"/>
<path class="st0" d="M1271.1,224h-7.7v-72.8l7.7-1.8V224z"/>
<path class="st0" d="M1281.4,209.3c0-9.8,8-15.9,20.8-15.9c5.3,0,10.5,1.2,15.3,3.5V190c0-8.3-4.8-12.6-13.8-12.6
	c-5.1,0-10.1,1.4-16.3,4.6l-2.9-5.9c7.5-3.6,13.6-5.2,20-5.2c13.2,0,20.6,6.4,20.6,18.1v35h-7.5v-5.1c-4.7,4-10.7,6.2-16.8,6
	C1289.2,225,1281.4,218.6,1281.4,209.3z M1302,218.9c6.2,0,11.3-1.9,15.5-6v-9.8c-4.3-2.9-9-4.2-15.1-4.2c-8.3,0-13.6,4-13.6,10.1
	C1288.8,214.9,1294.2,218.9,1302,218.9L1302,218.9z"/>
<path class="st0" d="M1342.3,178.5H1331v-6.6h11.2v-13.2l7.6-2v15.2h15.7v6.6h-15.7v31.9c0,5.6,2.3,7.8,8,7.8
	c2.6,0.1,5.2-0.4,7.6-1.4v6.8c-3,0.9-6,1.4-9.2,1.4c-9,0-14-4.4-14-12.6L1342.3,178.5z"/>
<path class="st0" d="M1382.3,171.9V162c0-10.2,5.7-15.8,16.1-15.8c2.4-0.1,4.7,0.2,7,0.9v6.9c-2.1-0.7-4.3-1-6.4-1
	c-6.1,0-9,2.9-9,9.2v9.7h15.5v6.6H1390V224h-7.6v-45.5H1370v-6.6H1382.3z"/>
<path class="st0" d="M1435.2,170.9c14.8,0,26.5,11.9,26.5,27S1450,225,1435.2,225s-26.6-11.9-26.6-27.1S1420.4,170.9,1435.2,170.9z
	 M1454.2,197.9c0-11.3-8.3-20.2-18.9-20.2s-19,8.8-19,20.2s8.3,20.3,19,20.3S1454.2,209.3,1454.2,197.9L1454.2,197.9z"/>
<path class="st0" d="M1472.5,171.9h7.7v7.4c2.9-5.3,8.5-8.6,14.6-8.5c1.7,0,3.3,0.2,4.9,0.7v7.1c-1.7-0.6-3.6-0.9-5.4-0.9
	c-6.4,0-11.3,3.8-14,10.7V224h-7.7L1472.5,171.9z"/>
<path class="st0" d="M1508.4,171.9h7.7v5.7c3.8-4.4,9.4-6.9,15.3-6.8c6.8-0.2,13.2,3.5,16.4,9.5c3.9-6.1,10.7-9.7,17.9-9.5
	c11.3,0,19.1,8.2,19.1,20.2v33h-7.6v-31.4c0-9.3-5.2-15-13.5-15c-5.7,0-10.5,2.9-13.8,8.5c0.3,1.6,0.5,3.2,0.5,4.9v33h-7.6v-31.4
	c0-9.3-5.2-15-13.4-15c-5.6,0-10.1,2.6-13.3,7.6V224h-7.7V171.9z"/>
<path class="st0" d="M556.8,98.8c0,11.9,7.2,17.7,20.2,17.7c4-0.1,8-0.7,11.9-1.7V101c-2.5,0.8-5.1,1.2-7.7,1.2
	c-5.4,0-7.4-1.7-7.4-6.7V74.3h15.6V60.1h-15.6v-18l-17,3.7v14.3h-11.3v14.2h11.2L556.8,98.8L556.8,98.8z M503.8,99.1
	c0-3.7,3.7-5.5,9.2-5.5c3.4,0,6.8,0.4,10.1,1.3v7.2c-3.3,1.8-6.9,2.7-10.6,2.6C507.1,104.7,503.8,102.6,503.8,99.1 M509,116.7
	c6,0,10.8-1.3,15.4-4.3v3.4h16.8V80.1c0-13.6-9.2-21-24.4-21c-8.5,0-16.9,2-26,6.1l6.2,12.5c6.5-2.7,12-4.4,16.8-4.4
	c7,0,10.6,2.7,10.6,8.3v2.7c-4.1-1.1-8.4-1.6-12.6-1.6c-14.3,0-22.9,6-22.9,16.7C488.9,109.2,496.7,116.7,509,116.7 M416.7,115.7
	h18.1V86.9H465v28.8h18.1V42.1H465v28.3h-30.3V42.1h-18.1L416.7,115.7z M347.7,87.9c0-8,6.3-14.1,14.6-14.1
	c4.3-0.1,8.5,1.4,11.8,4.3v19.5c-3.2,3-7.4,4.6-11.8,4.5C354.1,102,347.7,95.9,347.7,87.9 M374.3,115.8h16.8V38.4l-17,3.7V63
	c-4.3-2.5-9.2-3.7-14.2-3.7c-16.2,0-28.9,12.5-28.9,28.5c-0.2,15.6,12.3,28.4,27.9,28.6c0.2,0,0.3,0,0.5,0c5.4,0,10.6-1.7,14.9-4.8
	L374.3,115.8z M297.1,73c5.4,0,9.9,3.5,11.7,8.8h-23.2C287.2,76.3,291.4,73,297.1,73 M268.4,88c0,16.2,13.2,28.8,30.3,28.8
	c9.4,0,16.2-2.5,23.2-8.4l-11.2-10c-2.6,2.7-6.5,4.2-11.1,4.2c-5.9,0.2-11.4-3.3-13.7-8.8h39.6v-4.2c0-17.7-11.9-30.4-28.1-30.4
	c-15.8-0.2-28.8,12.4-29,28.2C268.4,87.5,268.4,87.8,268.4,88 M239,57.6c6,0,9.4,3.8,9.4,8.3s-3.4,8.3-9.4,8.3h-17.8V57.6H239z
	 M203,115.7h18.1V88.9h13.8l13.9,26.8H269l-16.2-29.4c8.4-3.4,13.9-11.6,13.9-20.7c0-13.2-10.4-23.5-26-23.5h-37.6L203,115.7z"/>
<path class="st1" d="M50.2,70.3L23.5,80c0.4,4.3,1.1,8.5,2.1,12.6L51,83.4C50.2,79.1,49.9,74.7,50.2,70.3"/>
<path class="st1" d="M167.9,40.9c-1.9-3.8-4-7.5-6.5-11l-26.6,9.7c3.1,3.1,5.7,6.7,7.8,10.5L167.9,40.9z"/>
<path class="st2" d="M109.3,33.3c5.4,2.5,10.2,6,14.4,10.2l26.6-9.7C125.9-0.3,78.4-8.3,44.1,16.1c-21.7,15.5-33.7,41.3-31.7,68
	L39,74.4c2-27.2,25.7-47.6,52.9-45.5C98,29.3,103.9,30.8,109.3,33.3"/>
<path class="st2" d="M27.3,92L2,101.3c2.3,9.3,6.4,18,11.9,25.8l26.6-9.7C33.7,110.4,29.1,101.6,27.3,92"/>
<path class="st2" d="M137.7,82c-0.4,5.9-1.9,11.7-4.5,17.1c-11.5,24.8-41,35.5-65.8,24c-5.4-2.5-10.3-6-14.5-10.3l-26.6,9.7
	c7.6,10.7,17.8,19.2,29.7,24.8c38.1,17.7,83.4,1.2,101.2-36.9c5.6-11.9,7.9-25,6.9-38L137.7,82z"/>
<path class="st2" d="M144.2,49.5l-25.3,9.2c4.7,8.5,6.9,18.2,6.2,27.9l26.6-9.7C151,67.4,148.4,58.1,144.2,49.5"/>
<path class="st3" d="M50.1,75.7c-0.1-1.8,0-3.6,0.1-5.4L23.5,80c0.1,1.7,0.4,3.4,0.6,5.1L50.1,75.7z"/>
<path class="st3" d="M164,33.9c-0.8-1.4-1.7-2.7-2.6-4l-26.6,9.7c1.2,1.2,2.3,2.5,3.3,3.8L164,33.9z"/>
<path class="st1" d="M26.5,122.5c2.1,2.9,4.3,5.6,6.8,8.2l28.9-10.6c-3.3-2.1-6.4-4.5-9.2-7.4L26.5,122.5z M164.3,72.3L137.7,82
	c-0.3,3.9-1,7.7-2.2,11.4l28.9-10.6C164.6,79.4,164.6,75.9,164.3,72.3"/>
</svg>
