<?xml version="1.0"?>
<svg xmlns="http://www.w3.org/2000/svg" width="163" height="48" viewBox="0 0 163 48">
    <g fill="none" fill-rule="evenodd">
        <path fill="#000" d="M2 9.552h6.534V3H2z"/>
        <path fill="#285AE6" d="M155.161 28.012c-.58-1.269-2.318-2.061-4.163-2.061-2.054 0-4.162.898-4.162 2.906 0 2.061 2.108 2.907 4.162 2.907 1.845 0 3.584-.793 4.163-2.06v-1.692zm0-6.606c0-2.272-1.949-3.699-5.269-3.699-2.372 0-4.585.687-6.43 1.903v-5.655c1.687-1.057 4.743-1.955 7.853-1.955 6.482 0 10.381 3.33 10.381 9.089v15.06h-6.535v-1.267c-.79.792-3.109 1.69-5.69 1.69-4.743 0-8.696-2.747-8.696-7.662 0-4.492 3.953-7.556 9.117-7.556 2.055 0 4.321.686 5.27 1.373v-1.321zM125.783 36.15l-8.906-23.622h6.851l5.428 15.695 5.323-15.695h6.587l-8.959 23.622h-6.324zM115.63 18.976c-.896-.53-2.056-.793-3.268-.793-2.213 0-4.004 1.162-4.479 3.33V36.15h-6.534V12.528h6.534v2.326c1.001-1.691 2.951-2.854 5.27-2.854 1.107 0 2.108.212 2.477.423v6.553zm-32.762 2.588h8.906c-.158-2.536-1.58-4.332-4.162-4.332-2.161 0-4.006 1.374-4.744 4.332zm-.21 4.281c.527 3.858 3.32 5.443 6.798 5.443 2.582 0 4.426-.581 6.745-2.06v5.39c-1.95 1.426-4.585 2.06-7.747 2.06-7.166 0-12.068-4.65-12.068-12.153 0-7.4 4.638-12.525 11.067-12.525 6.851 0 10.382 4.756 10.382 11.731v2.114H82.657zM57.23 28.223c.79 1.638 2.53 2.748 4.427 2.748 3.53 0 5.639-2.853 5.639-6.605 0-3.805-2.109-6.659-5.64-6.659-1.95 0-3.635 1.163-4.426 2.748v7.768zm0 17.61h-6.534V12.527h6.534v1.956C58.285 13.216 60.604 12 63.133 12c6.85 0 10.75 5.707 10.75 12.366 0 6.658-3.9 12.312-10.75 12.312-2.53 0-4.848-1.216-5.902-2.483v11.637zM38.75 12c4.849 0 7.747 3.382 7.747 8.72v15.43h-6.535V22.093c0-2.536-1.106-4.227-3.372-4.227-1.687 0-3.215 1.057-3.637 3.065V36.15h-6.587V22.093c0-2.536-1.054-4.227-3.32-4.227-1.686 0-3.267 1.057-3.689 3.065V36.15h-6.534V12.528h6.534v1.956c1.16-1.48 3.32-2.484 5.955-2.484 2.793 0 5.007 1.268 6.324 3.012C33.165 13.321 35.43 12 38.75 12zM8.534 36.15H2V12.528h6.534V36.15z"/>
        <path fill="#000" d="M158.267 39H155v6.552h6.535V39z"/>
    </g>
</svg>
