<svg id="Layer_1" data-name="Layer 1" xmlns="http://www.w3.org/2000/svg" width="116" height="39" viewBox="0 0 178 62"><path fill="#0A1429" d="M15.61,41a14,14,0,0,0,3.33-.33,6,6,0,0,0,2.1-.92,3,3,0,0,0,1.1-1.37,4.77,4.77,0,0,0,.31-1.77,4.09,4.09,0,0,0-2-3.45,27.68,27.68,0,0,0-6.71-3q-2.07-.73-4.14-1.68a15.41,15.41,0,0,1-3.73-2.38,11.57,11.57,0,0,1-2.68-3.48,10.9,10.9,0,0,1-1-5,12.35,12.35,0,0,1,1.1-5.28,11.26,11.26,0,0,1,3.11-4A14.37,14.37,0,0,1,11.28,5.9,21.92,21.92,0,0,1,17.75,5a26.3,26.3,0,0,1,7.38.91,25.72,25.72,0,0,1,5.13,2l-2.75,7.5a26.37,26.37,0,0,0-3.93-1.62,17.36,17.36,0,0,0-5.22-.7,9.54,9.54,0,0,0-4.91.95A3.18,3.18,0,0,0,12,17a3.4,3.4,0,0,0,.55,2,5.44,5.44,0,0,0,1.56,1.43,12.87,12.87,0,0,0,2.32,1.16c.87.35,1.84.7,2.89,1.07A60.89,60.89,0,0,1,25,25a15.41,15.41,0,0,1,4.06,2.77,10.17,10.17,0,0,1,2.41,3.73,14.89,14.89,0,0,1,.79,5.18,11,11,0,0,1-4.15,9.18Q24,49.13,15.61,49.13a33.67,33.67,0,0,1-5.06-.34,33.35,33.35,0,0,1-4-.82,23.85,23.85,0,0,1-3-1,20.57,20.57,0,0,1-2.1-1l2.68-7.56a24.11,24.11,0,0,0,4.67,1.86A24.18,24.18,0,0,0,15.61,41ZM65.43,16.18q-2.76,9.27-5.75,17.39T53.13,49.31A35.64,35.64,0,0,1,50.57,54a14.61,14.61,0,0,1-2.81,3.17A10,10,0,0,1,44.3,59a15.49,15.49,0,0,1-4.49.58,18,18,0,0,1-3.94-.4,17.53,17.53,0,0,1-3-.88L34.5,51a15.74,15.74,0,0,0,2.5.67,14.27,14.27,0,0,0,2.32.18,5,5,0,0,0,3.75-1.31,10.37,10.37,0,0,0,2.23-3.63q-3.12-6.09-6.23-13.69a174.59,174.59,0,0,1-5.86-17.06h9.64q.61,2.38,1.44,5.16T46,27c.61,1.89,1.24,3.73,1.87,5.52s1.24,3.42,1.81,4.88q.8-2.19,1.65-4.88c.57-1.79,1.14-3.63,1.69-5.52s1.08-3.76,1.59-5.61,1-3.57,1.38-5.16ZM78.37,41.75a9.17,9.17,0,0,0,3.54-.49,1.9,1.9,0,0,0,1-1.89,2.29,2.29,0,0,0-1.35-1.92,25.73,25.73,0,0,0-4.08-1.87,39.09,39.09,0,0,1-3.88-1.64,11.35,11.35,0,0,1-3-2,8.37,8.37,0,0,1-1.89-2.83,10.47,10.47,0,0,1-.67-4A8.58,8.58,0,0,1,71.48,18q3.34-2.62,9.21-2.62a29.19,29.19,0,0,1,5.61.52A26.38,26.38,0,0,1,90.57,17L89,24.05a34,34,0,0,0-3.45-1,18.46,18.46,0,0,0-4.18-.43q-4.27,0-4.27,2.38a2.55,2.55,0,0,0,.18,1,2.17,2.17,0,0,0,.73.82,11.47,11.47,0,0,0,1.5.86c.63.3,1.43.64,2.41,1a37,37,0,0,1,4.94,2.19,11.64,11.64,0,0,1,3.08,2.32A7.3,7.3,0,0,1,91.52,36,12.44,12.44,0,0,1,92,39.51a8.12,8.12,0,0,1-3.57,7.18q-3.57,2.45-10.1,2.44a29.43,29.43,0,0,1-7.11-.73,29.74,29.74,0,0,1-3.93-1.22l1.52-7.39a30.36,30.36,0,0,0,4.76,1.44A23.53,23.53,0,0,0,78.37,41.75ZM126,47.24c-.81.24-1.75.48-2.8.7s-2.17.42-3.33.58-2.34.29-3.54.39-2.35.16-3.44.16a20.22,20.22,0,0,1-7.08-1.16,14.13,14.13,0,0,1-5.25-3.33,14.41,14.41,0,0,1-3.26-5.24,19.91,19.91,0,0,1-1.13-6.93,23.47,23.47,0,0,1,1-7A15.28,15.28,0,0,1,99.91,20a12,12,0,0,1,4.49-3.36,15.07,15.07,0,0,1,6.07-1.16,13.88,13.88,0,0,1,3.38.37,18.27,18.27,0,0,1,3,1V2.39L126,.93ZM105.4,32a11.16,11.16,0,0,0,1.89,6.78,6.54,6.54,0,0,0,5.62,2.56q1.22,0,2.25-.09a15.56,15.56,0,0,0,1.71-.22V24.48a8,8,0,0,0-2.22-.92,10.93,10.93,0,0,0-2.78-.36Q105.41,23.2,105.4,32ZM143.56,6.91A5,5,0,0,1,142,10.84a5.77,5.77,0,0,1-7.63,0,5,5,0,0,1-1.62-3.93A5,5,0,0,1,134.32,3,5.8,5.8,0,0,1,142,3,5,5,0,0,1,143.56,6.91Zm-.85,41.36h-9.09V16.18h9.09Zm35-4q0,7.86-4,11.68t-12.36,3.81a34.2,34.2,0,0,1-5.86-.51,37.1,37.1,0,0,1-5.43-1.38l1.59-7.62a25.35,25.35,0,0,0,9.82,1.83q3.92,0,5.53-1.71A6.16,6.16,0,0,0,168.65,46V44.8a14.66,14.66,0,0,1-3,1,15.61,15.61,0,0,1-3.38.34q-6.66,0-10.19-3.94t-3.54-11a17.91,17.91,0,0,1,1.1-6.44,13.69,13.69,0,0,1,3.2-5,14.24,14.24,0,0,1,5.16-3.2,19.79,19.79,0,0,1,6.89-1.13q1.65,0,3.39.15c1.15.1,2.3.24,3.44.4s2.23.36,3.27.58,2,.46,2.77.7Zm-20-13.06q0,7.64,6.16,7.63a8.94,8.94,0,0,0,2.63-.37,10.1,10.1,0,0,0,2.07-.85V23.08c-.45-.09-1-.16-1.58-.22s-1.33-.09-2.14-.09a6.25,6.25,0,0,0-5.37,2.38A9.86,9.86,0,0,0,157.79,31.19Z"/></svg>