<svg xmlns="http://www.w3.org/2000/svg" viewBox="0 0 196 21.666"><defs><style>.a{fill:#fff;}</style></defs><g transform="translate(98 10.834)"><g transform="translate(-98 -10.833)"><path class="a" d="M308.5,10.357l-6.935-9.144h-3.208v21.17h2.961V5.691l7.182,9.484,7.229-9.484V22.383h2.961V1.213h-3.207Z" transform="translate(-237.191 -0.964)"/><rect class="a" width="2.96" height="21.17" transform="translate(85.94 0.249)"/><path class="a" d="M469.34,11.746A6.006,6.006,0,0,0,470.7,7.616a5.766,5.766,0,0,0-2.038-4.739,8.586,8.586,0,0,0-5.586-1.661h-7.811V22.385h2.96V14.326h4.759l5.114,8.059h3.487l-5.627-8.535a6.918,6.918,0,0,0,3.386-2.1Zm-6.392-.179h-4.727V3.819h4.6q4.913,0,4.913,3.89a3.892,3.892,0,0,1-1.015,2.786q-1.015,1.074-3.774,1.073Z" transform="translate(-361.924 -0.967)"/><path class="a" d="M550.572,1.213l-8.447,21.17H545.3l2.278-5.936h8.835l2.278,5.936h3.178l-8.417-21.17Zm-1.938,12.475L552,4.9l3.365,8.787Z" transform="translate(-430.979 -0.964)"/><path class="a" d="M664.476,18.06,652.636,1.213h-3.364v21.17h2.961V5.427l11.933,16.956h3.27V1.213h-2.96Z" transform="translate(-516.159 -0.964)"/><path class="a" d="M754.452,3.971h7.1V22.383h2.961V3.971h7.143V1.213h-17.2Z" transform="translate(-599.775 -0.964)"/><rect class="a" width="2.96" height="21.17" transform="translate(175.282 0.249)"/><path class="a" d="M899.983,12.8a5.747,5.747,0,0,0-2.079-2.018,26.249,26.249,0,0,0-2.714-1.3q-1.474-.611-2.711-.994a6.657,6.657,0,0,1-2.08-1.025,1.858,1.858,0,0,1-.843-1.5q0-3.208,4.795-3.208a9.661,9.661,0,0,1,5.1,1.408V1.289A12.154,12.154,0,0,0,893.994,0q-3.785,0-5.593,1.741a5.652,5.652,0,0,0-1.809,4.225,4.546,4.546,0,0,0,.841,2.769,5.066,5.066,0,0,0,2.075,1.681q1.237.54,2.721,1.056l2.723.924a4.806,4.806,0,0,1,2.073,1.314,3.122,3.122,0,0,1,.835,2.191q-.014,3-4.95,3a11.455,11.455,0,0,1-6.036-1.8v3.042a14.282,14.282,0,0,0,6.3,1.517,9.167,9.167,0,0,0,5.614-1.526,5,5,0,0,0,2.033-4.237A5.687,5.687,0,0,0,899.983,12.8Z" transform="translate(-704.822 0)"/><path class="a" d="M131.311,52.3a15.169,15.169,0,0,1-3.33-2.091c-2.278,1.264-4.528,2.589-6.776,3.832q-.781.431-1.558.827a22.524,22.524,0,0,0,1.907,1.288c8.472,5.076,20.149,2.287,27.018-4.372C143.356,54.995,136.772,54.7,131.311,52.3Z" transform="translate(-95.117 -39.918)"/><path class="a" d="M50.371,14.369A39.76,39.76,0,0,0,30.014,18.6c-.5-.436-1.011-.864-1.535-1.269a17.678,17.678,0,0,0-9.673-3.75A25.171,25.171,0,0,0,0,20.54a17.964,17.964,0,0,1,14.279-1.606,19.611,19.611,0,0,1,7.282,4.357c-5.858,3.274-11.884,6.2-18.506,6.291a40.228,40.228,0,0,0,22.439-5.317C33.4,19.9,41.332,14.5,50.371,14.369Z" transform="translate(0 -10.746)"/></g></g></svg>